<svg width="1732" height="1479" viewBox="0 0 1732 1479" fill="none" xmlns="http://www.w3.org/2000/svg">
<path d="M1731.24 961.677V980.264C1731.26 997.682 1729.3 1015.05 1725.4 1032.05C1723.56 1040.1 1721.29 1048.05 1718.58 1055.86C1714.08 1068.81 1708.44 1081.36 1701.72 1093.36C1700.8 1094.99 1699.89 1096.59 1698.93 1098.18C1690.21 1112.92 1679.88 1126.69 1668.11 1139.25C1663.09 1144.61 1657.79 1149.82 1652.28 1154.73C1651.43 1155.5 1650.57 1156.25 1649.71 1157L1649.45 1157.21L1646.5 1159.75C1645.13 1160.89 1643.76 1162.02 1642.36 1163.12C1629.8 1173.18 1616.22 1181.97 1601.84 1189.37C1597.48 1191.62 1593.03 1193.75 1588.52 1195.73C1579.58 1199.68 1570.4 1203.09 1561.03 1205.92C1558.81 1206.6 1556.58 1207.24 1554.34 1207.85C1532.93 1213.71 1510.79 1216.67 1488.55 1216.65H1390.12C1376.85 1216.65 1364.11 1221.79 1354.72 1230.94C1345.33 1240.09 1340.07 1252.5 1340.08 1265.44V1447.42H503.145V1265.45C503.147 1259.93 502.187 1254.44 500.305 1249.22C499.993 1248.35 499.645 1247.44 499.278 1246.63C494.034 1234.46 483.952 1224.86 471.331 1220.05C465.497 1217.8 459.278 1216.66 453.005 1216.67H287.448C284.827 1216.67 282.243 1216.67 279.641 1216.57C244.061 1215.51 209.117 1207.1 177.126 1191.89C175.293 1191.05 173.625 1190.21 171.884 1189.32C157.178 1181.92 143.256 1173.13 130.321 1163.07C128.892 1161.96 127.48 1160.84 126.069 1159.7L125.116 1158.93C124.42 1158.36 123.724 1157.78 123.046 1157.14L120.132 1154.78C116.357 1151.55 112.691 1148.18 109.136 1144.71C107.316 1142.94 105.52 1141.16 103.748 1139.36C91.6171 1126.8 80.8684 1113.03 71.6777 1098.29C58.8785 1077.68 49.27 1055.34 43.1625 1031.99C42.2584 1028.56 41.4337 1025.1 40.6885 1021.6C37.1091 1004.95 35.3097 987.988 35.3189 970.979C35.3189 963.409 35.6671 955.891 36.3635 948.499C37.0921 940.502 38.2359 932.546 39.7905 924.662C40.0654 923.198 40.3769 921.752 40.6885 920.305C41.11 918.252 41.5864 916.216 42.0812 914.181C43.3885 908.824 44.8729 903.527 46.5345 898.289C47.4752 895.361 48.4648 892.45 49.5033 889.558C55.2283 873.626 62.6415 858.318 71.6227 843.883C72.1909 842.973 72.759 842.098 73.3454 841.169C73.9318 840.241 74.3167 839.651 74.8115 838.884C86.9043 820.477 101.44 803.709 118.043 789.013C122.306 785.228 126.711 781.597 131.256 778.121C131.952 777.55 132.648 777.032 133.345 776.496L134.481 775.657C139.539 771.872 144.756 768.301 150.131 764.944C169.587 752.583 190.72 742.932 212.916 736.268C215.5 735.482 218.121 734.732 220.741 734.036L221.236 733.911C228.292 732.036 235.476 730.447 242.769 729.197C248.304 728.221 253.899 727.429 259.556 726.822C268.812 725.831 278.118 725.337 287.43 725.34H481.795C495.397 725.341 508.662 721.216 519.748 713.537C521.324 712.448 522.864 711.288 524.33 710.073C525.796 708.859 526.932 707.824 528.142 706.645C540.034 695.08 546.898 679.497 547.311 663.131C547.311 662.595 547.311 662.042 547.311 661.488C547.311 661.238 547.311 660.988 547.311 660.756C547.022 635.407 531.395 612.617 507.47 602.654C503.442 600.995 499.255 599.727 494.972 598.869C494.165 598.708 493.341 598.547 492.516 598.422C488.973 597.847 485.387 597.561 481.795 597.565H153.98H150.131C144.897 597.442 139.674 597.055 134.481 596.405L133.345 596.28L132.025 596.101L131.256 595.994C98.8172 591.294 68.7986 576.529 45.6548 553.89C43.9505 552.23 42.2828 550.534 40.6701 548.802C34.4097 542.114 28.7907 534.882 23.8835 527.196C22.222 524.589 20.6337 521.929 19.1188 519.215C14.8774 511.59 11.3389 503.612 8.54466 495.378C-3.44206 460.191 -1.55403 421.916 13.8409 388.012C16.7626 381.593 20.1429 375.382 23.9568 369.424C28.864 361.739 34.483 354.507 40.7434 347.819C42.3561 346.033 44.0238 344.391 45.7281 342.73C69.3899 319.605 100.205 304.709 133.418 300.341L134.536 300.216C139.729 299.566 144.952 299.178 150.186 299.055C151.408 299.055 152.691 299.055 154.035 299.055C177.519 299.084 200.548 292.741 220.54 280.736L220.815 280.575C226.564 277.102 232.018 273.185 237.125 268.862C239.086 267.219 240.992 265.523 242.843 263.755C249.125 257.795 254.751 251.212 259.629 244.114C261.547 241.316 263.38 238.43 265.127 235.454C269.493 227.81 273.013 219.735 275.628 211.367C277.066 206.748 278.217 202.05 279.073 197.296C280.26 190.9 280.928 184.422 281.071 177.923C281.071 177.084 281.071 176.245 281.071 175.387V49.327C281.066 36.3909 286.337 23.9831 295.723 14.8343C305.109 5.68549 317.842 0.545458 331.119 0.545459H1497.64C1548.49 0.50544 1596.03 25.0922 1624.49 66.1469C1625.06 66.9326 1625.59 67.7182 1626.13 68.5039C1630.69 75.3149 1634.67 82.4815 1638.02 89.9306C1640.51 95.4383 1642.65 101.092 1644.42 106.858C1651.04 128.433 1652.59 151.185 1648.94 173.423C1647.66 181.494 1645.68 189.444 1643.02 197.189C1630.73 232.817 1605.11 262.627 1571.28 280.682C1567.43 282.753 1563.48 284.652 1559.44 286.378C1553.97 288.733 1548.37 290.766 1542.65 292.467C1528.09 296.813 1512.94 299.016 1497.72 299.002H1373.1C1362.41 298.971 1351.81 300.822 1341.8 304.466L1340.46 304.966C1337.02 306.282 1333.66 307.809 1330.42 309.537C1328.11 310.769 1325.85 312.108 1323.67 313.536C1298.91 329.623 1284.03 356.707 1284.03 385.709V387.941C1284.23 396.034 1285.6 404.06 1288.1 411.778C1294.2 430.695 1306.75 447.014 1323.67 458.024C1328.93 461.464 1334.56 464.337 1340.46 466.594C1350.85 470.587 1361.93 472.629 1373.1 472.612C1374.73 472.612 1376.34 472.612 1377.95 472.719C1397.47 473.471 1416.46 479.077 1433.12 489.003C1435.1 490.164 1437.02 491.378 1438.91 492.664C1440.23 493.556 1441.51 494.449 1442.77 495.413C1445.22 497.223 1447.59 499.121 1449.88 501.109C1456.16 506.533 1461.8 512.617 1466.71 519.251C1480.95 538.412 1488.61 561.477 1488.57 585.138V661.917C1488.54 693.143 1507.52 721.415 1536.9 733.893C1538.73 734.678 1540.56 735.411 1542.56 736.053C1543.64 736.428 1544.74 736.768 1545.84 737.089C1550.2 738.357 1554.71 739.749 1559.35 741.321C1568.67 744.41 1578.48 748.106 1588.5 752.48C1611.31 762.279 1632.67 775.017 1652 790.352C1657.85 795.039 1663.45 800.009 1668.79 805.244C1672.73 809.101 1676.55 813.148 1680.24 817.386C1686.22 824.207 1691.73 831.406 1696.74 838.937L1698.24 841.223C1707.92 856.311 1715.5 872.582 1720.8 889.611C1721.7 892.468 1722.54 895.379 1723.33 898.343C1724.7 903.485 1725.93 908.788 1726.99 914.234C1727.65 917.663 1728.22 921.162 1728.82 924.716C1729.92 932.358 1730.66 940.303 1731.08 948.553C1731.19 952.826 1731.24 957.201 1731.24 961.677V961.677Z" fill="#F3F4FE"/>
<path d="M1344.02 1246.63C1341.46 1252.6 1340.14 1258.99 1340.15 1265.45V1270.45H503.145V1265.45C503.147 1259.93 502.187 1254.44 500.305 1249.22C499.993 1248.35 499.645 1247.44 499.278 1246.63L1344.02 1246.63Z" fill="#EDEEFE"/>
<path d="M1725.49 1031.99C1723.66 1040.04 1721.38 1048 1718.67 1055.81H50.75C47.8058 1048 45.2735 1040.05 43.1631 1031.99H1725.49Z" fill="#EDEEFE"/>
<path d="M1698.2 841.169H73.3457C73.8222 840.402 74.317 839.652 74.8118 838.884C79.7009 831.423 85.005 824.228 90.7004 817.332H1680.26C1686.24 824.153 1691.75 831.353 1696.75 838.884L1698.2 841.169Z" fill="#EDEEFE"/>
<path d="M1488.59 602.654V626.492H536.664C529.55 615.922 519.396 607.631 507.471 602.654H1488.59Z" fill="#EDEEFE"/>
<path d="M1288.14 411.849H5.31934C7.45689 403.681 10.3078 395.706 13.8409 388.012H1284.07C1284.26 396.105 1285.63 404.131 1288.14 411.849Z" fill="#EDEEFE"/>
<path d="M1571.2 280.682C1567.35 282.753 1563.41 284.652 1559.36 286.378C1553.9 288.733 1548.29 290.766 1542.58 292.467C1528.02 296.813 1512.87 299.016 1497.64 299.002H1373.02C1362.36 298.98 1351.79 300.831 1341.8 304.466H112.581C119.394 302.604 126.332 301.208 133.344 300.287L134.462 300.162C139.655 299.512 144.879 299.125 150.113 299.002C151.334 299.002 152.617 299.002 153.961 299.002C177.445 299.031 200.474 292.687 220.466 280.682L1571.2 280.682Z" fill="#EDEEFE"/>
<path d="M1638.02 89.8593H280.979V66.0399H1624.49C1625.06 66.8256 1625.59 67.6112 1626.13 68.3969C1630.69 75.2193 1634.67 82.3979 1638.02 89.8593Z" fill="#EDEEFE"/>
<path d="M860.282 108.893V789.013H118.079C122.342 785.228 126.747 781.597 131.292 778.121C131.988 777.55 132.684 777.032 133.381 776.496L134.517 775.657C139.575 771.872 144.792 768.301 150.167 764.944C169.623 752.584 190.756 742.932 212.952 736.268C212.952 735.803 212.952 735.339 212.952 734.875L213.062 736.25C215.646 735.464 218.267 734.714 220.887 734.018C228.108 732.089 235.438 730.477 242.879 729.179C248.413 728.203 254.009 727.411 259.665 726.804C268.922 725.814 278.227 725.319 287.539 725.322H481.795C517.337 725.333 546.405 697.732 547.31 663.113C547.31 662.578 547.31 662.024 547.31 661.471C547.31 661.221 547.31 660.971 547.31 660.739C546.95 630.71 525.162 604.985 494.971 598.94C494.165 598.78 493.34 598.619 492.515 598.494C488.972 597.919 485.387 597.632 481.795 597.637H153.979H150.131C144.897 597.514 139.673 597.126 134.48 596.476L133.344 596.351L132.025 596.173L131.255 596.066C119.313 594.328 107.625 591.217 96.4355 586.798V309.822C108.291 305.141 120.703 301.931 133.381 300.27L134.499 300.145C139.691 299.495 144.915 299.107 150.149 298.984C151.371 298.984 152.654 298.984 153.998 298.984C184.525 299.008 214.032 288.271 237.069 268.755C239.03 267.112 240.936 265.416 242.787 263.648C249.069 257.688 254.695 251.105 259.574 244.007C261.492 241.209 263.324 238.323 265.071 235.347C275.138 217.73 280.612 197.975 281.015 177.816C281.015 176.977 281.015 176.138 281.015 175.28V79.753H829.494C837.543 79.6386 845.309 82.6446 851.083 88.1096C856.857 93.5747 860.166 101.051 860.282 108.893Z" fill="#C7CCF9"/>
<path d="M822.2 118.946V789.013H134.48V775.657C139.538 771.872 144.755 768.301 150.131 764.944C169.587 752.584 190.719 742.932 212.916 736.268C212.916 735.803 212.916 735.339 212.916 734.875L213.026 736.25C215.61 735.464 218.23 734.714 220.851 734.018C228.071 732.089 235.402 730.476 242.842 729.179C248.377 728.203 253.972 727.411 259.629 726.804C268.885 725.814 278.19 725.319 287.503 725.322H481.795C517.337 725.333 546.406 697.732 547.31 663.113C547.31 662.578 547.31 662.024 547.31 661.471C547.31 661.221 547.31 660.971 547.31 660.738C546.95 630.71 525.162 604.985 494.971 598.94C494.165 598.78 493.34 598.619 492.516 598.494C488.973 597.919 485.387 597.632 481.795 597.637H153.979H150.131C144.897 597.514 139.673 597.126 134.48 596.476V300.216C139.673 299.566 144.897 299.179 150.131 299.055C151.353 299.055 152.635 299.055 153.979 299.055C184.523 299.064 214.038 288.301 237.069 268.755C239.03 267.112 240.936 265.416 242.787 263.648C249.069 257.688 254.695 251.105 259.574 244.007C261.492 241.209 263.324 238.323 265.072 235.347C275.138 217.73 280.612 197.975 281.015 177.816C281.015 176.977 281.015 176.138 281.015 175.28V118.946H822.2Z" fill="#F0F1FC"/>
<path d="M822.201 211.26V789.013H519.822V713.466C522.816 711.405 525.624 709.1 528.216 706.574C540.107 695.009 546.972 679.426 547.385 663.06C547.385 662.524 547.385 661.971 547.385 661.417C547.385 661.167 547.385 660.917 547.385 660.685C547.19 640.281 536.968 621.204 519.896 609.386V546.106C519.896 525.875 536.114 509.466 556.126 509.466C576.138 509.466 592.338 493.074 592.338 472.844V253.595C592.327 247.298 593.715 241.072 596.407 235.347C603.082 220.806 617.847 211.394 634.195 211.26L822.201 211.26Z" fill="#E5E7FD"/>
<path d="M345.101 597.583H153.979H150.13C144.897 597.46 139.673 597.073 134.48 596.423L133.344 596.298L132.024 596.119C132.476 592.31 133.155 588.53 134.059 584.799C134.187 584.227 134.333 583.638 134.48 583.013C136.501 575.162 139.459 567.57 143.295 560.39C152.386 543.376 166.097 529.121 182.934 519.179C190.328 514.801 198.242 511.317 206.501 508.805L206.904 508.698L210.313 507.734C211.596 507.395 212.897 507.073 214.198 506.787C217.277 506.091 220.429 505.52 223.618 505.109L225.011 504.913L226.843 504.716L228.126 504.591C229.702 504.448 231.296 504.323 232.909 504.252C233.825 504.252 234.742 504.163 235.64 504.145H238.425C259.79 504.12 280.671 510.34 298.369 522C300.495 523.411 302.584 524.875 304.6 526.447C305.297 526.964 305.956 527.5 306.616 528.018C311.908 532.281 316.774 537.022 321.149 542.177L322.761 544.141C324.374 546.106 325.877 548.141 327.325 550.212C337.147 564.343 343.252 580.612 345.101 597.583V597.583Z" fill="#BAC3F7"/>
<path d="M940.861 816.439C940.861 831.599 926.86 843.883 909.578 843.883H71.6221C72.6667 842.205 73.7296 840.544 74.8108 838.884C86.8905 820.468 101.428 803.698 118.042 789.013H909.578C926.86 789.013 940.861 801.298 940.861 816.439V816.439Z" fill="#C7CCF9"/>
<path d="M573.242 789.013V670.756C573.252 668.435 575.186 666.559 577.567 666.559H676.069C678.451 666.55 680.376 664.666 680.376 662.346V583.781C680.376 581.454 682.312 579.567 684.701 579.567H704.86C706.005 579.567 707.103 579.122 707.911 578.332C708.719 577.541 709.171 576.469 709.166 575.353V548.98C709.166 546.653 711.102 544.766 713.491 544.766H741.933C744.314 544.766 746.248 542.891 746.258 540.57V488.789C746.258 487.673 746.714 486.603 747.526 485.816C748.337 485.028 749.438 484.588 750.583 484.593H769.404C771.792 484.593 773.729 482.706 773.729 480.379V463.381C773.729 462.268 774.182 461.2 774.99 460.414C775.798 459.627 776.893 459.185 778.035 459.185H796.874C799.256 459.185 801.189 461.06 801.199 463.381V480.397C801.199 482.717 803.124 484.601 805.506 484.611H817.821C820.202 484.611 822.136 486.487 822.146 488.807V789.013H573.242Z" fill="#DBDFFC"/>
<path d="M288.456 597.583H153.979H150.131C144.897 597.46 139.673 597.073 134.48 596.423V478.576C144.147 480.868 153.653 483.76 162.941 487.236L167.541 489.021C170.436 490.212 173.307 491.402 176.154 492.592C177.473 493.164 178.756 493.771 180.057 494.378C183.722 496.092 187.388 497.913 191.053 499.842C192.061 500.36 193.087 500.913 194.077 501.467C195.506 502.234 196.917 503.038 198.31 503.841C199.703 504.645 201.041 505.431 202.397 506.252L202.873 506.555C204.119 507.305 205.365 508.073 206.538 508.859C215.591 514.577 224.225 520.901 232.378 527.786C255.547 547.281 274.594 570.989 288.456 597.583V597.583Z" fill="#BAC3F7"/>
<path d="M345.101 597.583H339.732C324.7 555.634 284.084 527.535 238.481 527.536C236.428 527.536 234.394 527.536 232.378 527.714C223.606 528.184 214.927 529.707 206.539 532.25C198.952 527.441 191.083 523.071 182.971 519.161C167.522 511.674 151.264 505.889 134.499 501.913V478.451C144.166 480.743 153.672 483.635 162.959 487.111L167.559 488.896C170.455 490.087 173.326 491.277 176.172 492.467C177.492 493.039 178.775 493.646 180.076 494.253C183.741 495.967 187.406 497.788 191.071 499.717C192.079 500.235 193.106 500.788 194.095 501.342C195.525 502.109 196.936 502.913 198.328 503.716C199.721 504.52 201.059 505.306 202.415 506.127L202.892 506.43C204.138 507.18 205.384 507.948 206.557 508.734L206.96 508.627L210.369 507.662C211.651 507.323 212.953 507.002 214.254 506.716C217.333 506.02 220.485 505.448 223.673 505.038L225.066 504.841L226.899 504.645L228.182 504.52C229.758 504.377 231.352 504.252 232.965 504.181C233.881 504.181 234.797 504.091 235.695 504.073H238.481C259.846 504.049 280.727 510.269 298.425 521.929C300.551 523.358 302.64 524.84 304.656 526.375C305.352 526.893 306.012 527.429 306.672 527.946C311.963 532.209 316.829 536.95 321.204 542.106L322.817 544.07C324.393 546.034 325.914 548.07 327.38 550.141C337.195 564.298 343.281 580.592 345.101 597.583V597.583Z" fill="#A8B7F4"/>
<path d="M427.056 728.518V730.964C427.056 730.964 427.056 732.893 426.946 733.857C426.946 734.518 426.946 735.196 426.817 735.857V736.785C426.827 736.94 426.827 737.095 426.817 737.25V738.303V738.785V739.321V739.946C426.817 739.946 426.817 740.517 426.726 740.803C426.634 741.088 426.726 741.16 426.726 741.338C426.726 741.999 426.561 742.66 426.451 743.303C426.341 743.945 426.304 744.374 426.213 744.91L426.103 745.517C425.993 746.177 425.883 746.82 425.754 747.463C425.571 748.499 425.351 749.516 425.113 750.534C425.122 750.665 425.122 750.796 425.113 750.927C425.113 751.302 424.948 751.659 424.857 752.034C424.765 752.409 424.765 752.409 424.71 752.605C424.655 752.802 424.527 753.409 424.417 753.802L424.142 754.855C424.142 755.034 424.05 755.212 423.995 755.391C423.739 756.319 423.482 757.176 423.189 758.158L422.804 759.444C422.676 759.855 422.547 760.248 422.401 760.658C421.998 761.872 421.576 763.087 421.118 764.229C420.99 764.533 420.88 764.854 420.751 765.158C420.705 765.298 420.649 765.435 420.587 765.569L420.183 766.604C420.071 766.914 419.942 767.218 419.799 767.515L419.579 768.068L419.414 768.425C419.356 768.61 419.283 768.789 419.194 768.961C418.882 769.711 418.552 770.443 418.204 771.175L417.948 771.711C417.38 772.907 416.793 774.103 416.115 775.282C415.858 775.8 415.584 776.3 415.309 776.8L414.392 778.478L413.879 779.389L412.193 782.192L411.863 782.728L410.654 784.513C410.507 784.745 410.361 784.978 410.196 785.21C410.031 785.442 409.921 785.638 409.774 785.835L409.316 786.495C408.821 787.227 408.29 787.959 407.777 788.692C405.944 791.263 403.892 793.763 401.784 796.155L400.336 797.762C378.606 821.488 346.968 834.279 314.381 832.514C281.794 830.748 251.807 814.618 232.91 788.692C232.14 787.62 231.371 786.531 230.638 785.442C229.147 783.252 227.754 781.002 226.459 778.692C224.48 775.228 222.717 771.651 221.181 767.979C219.856 764.913 218.706 761.777 217.736 758.587C217.113 756.659 216.582 754.712 216.105 752.748C215.113 748.773 214.372 744.742 213.888 740.678C213.686 739.107 213.521 737.5 213.411 735.893C213.411 735.428 213.411 734.964 213.411 734.5L213.521 735.875C216.105 735.089 218.726 734.339 221.346 733.643C228.567 731.714 235.897 730.101 243.337 728.804C248.872 727.828 254.467 727.036 260.124 726.429C269.381 725.439 278.686 724.944 287.998 724.947H427.55C427.037 726.34 427.056 727.429 427.056 728.518V728.518Z" fill="#C7CCF9"/>
<path d="M134.463 407.992H822.201V441.454H134.463V407.992Z" fill="#ECEDFC"/>
<path d="M134.463 350.444H822.201V383.905H134.463V350.444Z" fill="#ECEDFC"/>
<path d="M822.201 292.895V326.357H134.463V300.216C139.656 299.566 144.879 299.178 150.113 299.055C151.335 299.055 152.618 299.055 153.962 299.055C167.372 299.051 180.696 296.972 193.436 292.895L822.201 292.895Z" fill="#ECEDFC"/>
<path d="M822.201 235.346V268.754H237.07C239.031 267.112 240.937 265.415 242.788 263.648C249.07 257.688 254.696 251.105 259.575 244.006C261.493 241.209 263.325 238.322 265.072 235.346H822.201Z" fill="#ECEDFC"/>
<path d="M822.201 177.816V211.259H275.519C278.905 200.407 280.755 189.155 281.016 177.816L822.201 177.816Z" fill="#ECEDFC"/>
<path d="M280.979 120.267H822.2V153.729H280.979L280.979 120.267Z" fill="#ECEDFC"/>
<path d="M494.971 112.107V598.887C494.165 598.726 493.34 598.565 492.516 598.44C488.973 597.865 485.387 597.579 481.795 597.583H450.879V112.107L494.971 112.107Z" fill="#C7CCF9"/>
<path d="M481.795 725.269C486.221 725.272 490.636 724.835 494.971 723.965V789.013H450.879V725.269H481.795Z" fill="#C7CCF9"/>
<path d="M260.142 597.583H153.979H150.131C144.897 597.46 139.673 597.073 134.48 596.423L133.344 596.298L132.025 596.119L131.255 596.012V560.086H134.48C137.431 560.086 140.363 560.211 143.295 560.372C147.278 560.574 151.236 560.86 155.17 561.229H155.28C163.173 562.015 170.949 563.169 178.609 564.693L181.468 565.282C185.255 566.104 189.025 567.002 192.775 567.979L195.579 568.729C197.412 569.211 199.061 569.728 200.784 570.228L201.114 570.336C204.669 571.425 208.169 572.567 211.651 573.8L212.036 573.942C213.704 574.532 215.353 575.157 217.002 575.728C218.028 576.121 219.055 576.514 220.063 576.942C221.675 577.567 223.27 578.21 224.846 578.906C225.122 579.001 225.392 579.114 225.652 579.245C227.301 579.942 228.914 580.674 230.527 581.406L233.111 582.584C234.1 583.049 235.108 583.513 236.08 584.013L238.205 585.066C239.25 585.566 240.295 586.084 241.321 586.656C242.347 587.227 243.832 587.959 245.078 588.638C245.463 588.816 245.829 589.03 246.196 589.245C246.874 589.602 247.533 589.977 248.193 590.352C250.814 591.798 253.379 593.298 255.927 594.869L257.888 596.083C258.639 596.619 259.409 597.083 260.142 597.583V597.583Z" fill="#C7CCF9"/>
<path d="M366.176 789.013H131.255V778.121C131.951 777.55 132.648 777.032 133.344 776.496L134.48 775.657C139.538 771.872 144.755 768.3 150.131 764.944C169.587 752.583 190.719 742.931 212.916 736.268C212.916 735.803 212.916 735.339 212.916 734.875L213.026 736.25C215.609 735.464 218.23 734.714 220.851 734.018C228.071 732.089 235.402 730.476 242.842 729.179C248.376 728.203 253.972 727.411 259.629 726.804C268.885 725.814 278.19 725.319 287.502 725.322H357.013C363.119 746.028 366.204 767.469 366.176 789.013V789.013Z" fill="#C7CCF9"/>
<path d="M427.055 728.518V730.965C427.055 730.965 427.055 732.893 426.945 733.857C426.945 734.518 426.945 735.196 426.816 735.857V736.786C426.826 736.94 426.826 737.095 426.816 737.25V738.303V738.768V739.303V739.928C426.816 739.928 426.816 740.5 426.725 740.785C426.633 741.071 426.725 741.142 426.725 741.321C426.725 741.982 426.56 742.642 426.45 743.285C426.34 743.928 426.303 744.356 426.212 744.892L426.102 745.499C425.992 746.16 425.882 746.803 425.753 747.445C425.57 748.481 425.35 749.499 425.112 750.517C425.121 750.647 425.121 750.779 425.112 750.909C425.112 751.284 424.947 751.641 424.855 752.016L424.416 753.802L424.141 754.855C424.141 755.034 424.049 755.213 423.994 755.391C423.738 756.32 423.481 757.177 423.188 758.159L422.803 759.444V759.444C422.693 759.819 422.565 760.212 422.436 760.587C422.308 760.962 422.308 760.962 422.235 761.141C422.003 761.867 421.746 762.599 421.465 763.337C421.408 763.544 421.335 763.747 421.245 763.944C421.245 763.944 421.245 764.122 421.154 764.23C421.062 764.337 420.915 764.855 420.787 765.158C420.74 765.298 420.685 765.435 420.622 765.569C420.366 766.229 420.109 766.872 419.834 767.515L419.614 768.069L419.449 768.426C418.991 769.533 418.496 770.622 417.983 771.711C417.47 772.8 416.829 774.104 416.151 775.282C415.894 775.8 415.619 776.3 415.344 776.8C415.069 777.3 414.74 777.925 414.428 778.478L413.915 779.389C413.365 780.335 412.815 781.175 412.229 782.192L411.899 782.728C411.514 783.371 411.111 783.978 410.689 784.514C410.543 784.746 410.396 784.978 410.231 785.21C410.066 785.442 409.956 785.621 409.81 785.835L409.352 786.496C408.851 787.222 408.338 787.954 407.812 788.692H232.414C231.644 787.62 230.875 786.531 230.142 785.442C228.651 783.252 227.258 781.002 225.963 778.693C223.999 775.221 222.236 771.644 220.685 767.979C219.384 764.926 218.248 761.783 217.24 758.587C216.654 756.659 216.104 754.713 215.609 752.748C214.634 748.769 213.894 744.739 213.392 740.678C213.208 739.089 213.044 737.482 212.934 735.875C215.518 735.089 218.138 734.339 220.759 733.643C227.979 731.715 235.31 730.102 242.75 728.804C248.284 727.828 253.88 727.036 259.537 726.429C268.793 725.439 278.098 724.944 287.41 724.947H426.963C427.036 726.34 427.055 727.429 427.055 728.518V728.518Z" fill="#BAC3F7"/>
<path d="M260.142 597.583H153.979H150.131C144.897 597.46 139.673 597.073 134.48 596.423L133.344 596.298L132.025 596.119L131.255 596.012V560.086H134.48C137.431 560.086 140.363 560.211 143.295 560.372C147.278 560.574 151.236 560.86 155.17 561.229H155.28C163.173 562.015 170.949 563.169 178.609 564.693L181.468 565.282C185.255 566.104 189.025 567.002 192.775 567.979L195.579 568.729C197.412 569.211 199.061 569.728 200.784 570.228L201.114 570.336C204.669 571.425 208.169 572.567 211.651 573.8L212.036 573.942C213.704 574.532 215.353 575.157 217.002 575.728C218.028 576.121 219.055 576.514 220.063 576.942C221.675 577.567 223.27 578.21 224.846 578.906C225.122 579.001 225.392 579.114 225.652 579.245C227.301 579.942 228.914 580.674 230.527 581.406L233.111 582.584C234.1 583.049 235.108 583.513 236.08 584.013L238.205 585.066C239.25 585.566 240.295 586.084 241.321 586.656C242.347 587.227 243.832 587.959 245.078 588.638C245.463 588.816 245.829 589.03 246.196 589.245C246.874 589.602 247.533 589.977 248.193 590.352C250.814 591.798 253.379 593.298 255.927 594.869L257.888 596.083C258.639 596.619 259.409 597.083 260.142 597.583V597.583Z" fill="#BAC3F7"/>
<path d="M366.176 789.013H131.255V778.121C131.951 777.55 132.648 777.032 133.344 776.496L134.48 775.657C139.538 771.872 144.755 768.301 150.131 764.944C169.587 752.584 190.719 742.932 212.916 736.268C212.916 735.804 212.916 735.339 212.916 734.875L213.026 736.25C215.609 735.464 218.23 734.714 220.851 734.018C228.071 732.09 235.402 730.477 242.842 729.179C248.376 728.203 253.972 727.411 259.629 726.804C268.885 725.814 278.19 725.319 287.502 725.322H357.013C363.119 746.029 366.204 767.469 366.176 789.013V789.013Z" fill="#BAC3F7"/>
<path d="M257.889 596.155C258.64 596.619 259.391 597.083 260.143 597.583H194.755C175.333 590.742 155.065 586.443 134.481 584.799H134.06L131.256 584.584V560.122H134.481C137.432 560.122 140.382 560.247 143.314 560.408C147.285 560.61 151.237 560.902 155.171 561.283H155.281C163.114 562.044 170.901 563.2 178.61 564.747L181.469 565.336C185.281 566.145 189.05 567.044 192.776 568.032L195.58 568.782C197.413 569.264 199.062 569.782 200.785 570.282L201.115 570.389C204.67 571.46 208.188 572.603 211.652 573.853L212.037 573.996C213.705 574.585 215.354 575.21 217.003 575.781C218.029 576.174 219.056 576.567 220.064 576.996C221.676 577.621 223.271 578.263 224.847 578.96C225.123 579.054 225.393 579.168 225.653 579.299C227.302 579.995 228.915 580.727 230.528 581.46L233.112 582.638C234.101 583.102 235.109 583.566 236.081 584.066L238.206 585.12C239.251 585.62 240.296 586.138 241.322 586.709C242.348 587.28 243.832 588.013 245.079 588.691C245.463 588.87 245.83 589.084 246.197 589.298C246.875 589.655 247.534 590.03 248.194 590.405C250.815 591.851 253.38 593.351 255.928 594.923L257.889 596.155Z" fill="#C7CCF9"/>
<path d="M427.055 728.518V730.964C427.055 730.964 427.055 732.893 426.945 733.857C426.945 734.518 426.945 735.196 426.817 735.857V736.785C426.827 736.94 426.827 737.095 426.817 737.25V738.303V738.714V739.249V739.874C426.817 739.874 426.817 740.446 426.725 740.731C426.634 741.017 426.725 741.088 426.725 741.267C426.725 741.928 426.56 742.588 426.45 743.231C426.34 743.874 426.231 744.713 426.102 745.445C425.974 746.177 425.882 746.749 425.754 747.392C425.571 748.427 425.351 749.445 425.113 750.463C425.121 750.593 425.121 750.725 425.113 750.856C424.984 751.409 424.856 751.98 424.709 752.534C424.563 753.087 424.526 753.337 424.416 753.73L424.141 754.784C424.141 754.962 424.05 755.141 423.995 755.319C423.738 756.248 423.482 757.105 423.188 758.087C423.06 758.551 422.914 758.998 422.767 759.444C422.62 759.89 422.529 760.212 422.4 760.587C422.272 760.962 422.272 760.962 422.199 761.14C421.967 761.866 421.71 762.599 421.429 763.337C421.372 763.544 421.299 763.747 421.209 763.944C421.063 764.354 420.916 764.747 420.751 765.158C420.704 765.298 420.649 765.435 420.586 765.569L420.183 766.604L419.578 768.068L419.193 768.961C418.882 769.711 418.552 770.443 418.204 771.175L417.947 771.711C417.379 772.907 416.793 774.104 416.115 775.282C415.858 775.8 415.583 776.3 415.308 776.8L414.392 778.478L413.879 779.389L412.193 782.192L411.863 782.728L410.653 784.513C410.507 784.745 410.36 784.978 410.195 785.21C410.03 785.442 409.92 785.62 409.774 785.835L409.316 786.495C408.821 787.227 408.289 787.959 407.776 788.692C405.944 791.263 403.891 793.763 401.784 796.155L400.336 797.762C401.802 794.816 403.14 791.781 404.313 788.692C412.128 768.276 413.217 745.994 407.428 724.947H427.495C427.037 726.34 427.055 727.429 427.055 728.518V728.518Z" fill="#C7CCF9"/>
<path d="M766.086 505.823H782.488V516.483H766.086V505.823Z" fill="#E5E7FD"/>
<path d="M766.086 545.266H782.488V555.926H766.086V545.266Z" fill="#E5E7FD"/>
<path d="M726.171 564.979H742.573V575.639H726.171V564.979Z" fill="#E5E7FD"/>
<path d="M726.171 642.776H742.573V653.435H726.171V642.776Z" fill="#E5E7FD"/>
<path d="M654.573 681.665H670.975V692.325H654.573V681.665Z" fill="#E5E7FD"/>
<path d="M654.573 720.573H670.975V731.232H654.573V720.573Z" fill="#E5E7FD"/>
<path d="M604.212 697.664H620.614V708.324H604.212V697.664Z" fill="#E5E7FD"/>
<path d="M604.212 742.41H620.614V753.07H604.212V742.41Z" fill="#E5E7FD"/>
<path d="M654.573 759.462H670.975V770.122H654.573V759.462Z" fill="#E5E7FD"/>
<path d="M726.171 720.573H742.573V731.232H726.171V720.573Z" fill="#E5E7FD"/>
<path d="M726.171 759.462H742.573V770.122H726.171V759.462Z" fill="#E5E7FD"/>
<path d="M766.086 624.117H782.488V634.776H766.086V624.117Z" fill="#E5E7FD"/>
<path d="M766.086 663.56H782.488V674.219H766.086V663.56Z" fill="#E5E7FD"/>
<path d="M766.086 742.41H782.488V753.07H766.086V742.41Z" fill="#E5E7FD"/>
<rect x="220.741" y="1478.86" width="135.722" height="31.4437" rx="8.8" transform="rotate(-180 220.741 1478.86)" fill="#D2D6FA"/>
<rect x="1718.18" y="1478.86" width="1484.3" height="31.4437" rx="8.8" transform="rotate(-180 1718.18 1478.86)" fill="#D2D6FA"/>
<rect x="905.346" y="422.848" width="345.17" height="20.8018" rx="5.82" fill="#BCBFF6"/>
<path d="M1017.2 340.607C1021.91 351.73 1016.47 364.464 1005.05 369.048L993.784 373.573C989.079 362.45 994.519 349.717 1005.93 345.132L1017.2 340.607Z" fill="#D2D6FA"/>
<path d="M988.363 319.352C999.779 323.937 1005.22 336.67 1000.51 347.793L995.87 358.771C984.454 354.187 979.014 341.453 983.719 330.33L988.363 319.352Z" fill="#BCBFF6"/>
<path d="M993.79 373.56L982.522 369.035C971.106 364.45 965.666 351.717 970.372 340.593L981.639 345.118C993.055 349.703 998.495 362.436 993.79 373.56Z" fill="#D2D6FA"/>
<path d="M1032.77 383.852C1032.3 405.069 1014.51 422.032 992.732 422.032C970.951 422.032 953.165 405.069 952.699 383.852C952.711 380.613 953.123 377.388 953.927 374.245H1031.54C1032.34 377.388 1032.75 380.613 1032.77 383.852Z" fill="#D2D6FA"/>
<rect x="947.844" y="364.05" width="91.7582" height="10.2134" rx="2.86" fill="#BCBFF6"/>
<path d="M1032.55 379.352H953.03C953.227 377.631 953.546 375.924 953.983 374.245H1031.59C1032.03 375.924 1032.35 377.631 1032.55 379.352Z" fill="#B5BBF4"/>
<path d="M1208.78 358.496C1210.55 362.673 1210.54 367.362 1208.76 371.533C1206.98 375.704 1203.57 379.015 1199.28 380.736L1190.45 384.281C1186.77 375.583 1191.03 365.626 1199.96 362.041L1208.78 358.496Z" fill="#D2D6FA"/>
<path d="M1186.28 341.895C1195.21 345.48 1199.46 355.437 1195.78 364.135L1192.12 372.786C1187.84 371.064 1184.43 367.754 1182.65 363.583C1180.86 359.412 1180.85 354.722 1182.62 350.545L1186.26 341.945L1186.28 341.895Z" fill="#BCBFF6"/>
<path d="M1190.47 384.276L1181.65 380.731C1172.72 377.146 1168.46 367.188 1172.14 358.49L1180.97 362.035C1185.26 363.757 1188.67 367.067 1190.45 371.238C1192.23 375.409 1192.24 380.099 1190.47 384.276Z" fill="#D2D6FA"/>
<path d="M1221.07 392.333C1221.07 409.186 1207.04 422.848 1189.75 422.848C1172.45 422.848 1158.43 409.186 1158.43 392.333C1158.43 391.139 1158.5 389.947 1158.65 388.762C1158.8 387.419 1159.06 386.089 1159.4 384.78H1220.09C1220.44 386.089 1220.69 387.419 1220.85 388.762C1221 389.947 1221.07 391.139 1221.07 392.333V392.333Z" fill="#D2D6FA"/>
<rect x="1154.58" y="376.852" width="71.7828" height="7.98145" rx="2.235" fill="#BCBFF6"/>
<path d="M1220.85 388.815H1158.65C1158.8 387.473 1159.06 386.142 1159.4 384.833H1220.09C1220.44 386.142 1220.69 387.473 1220.85 388.815V388.815Z" fill="#B5BBF4"/>
<path d="M1074.22 279.468H1093.24C1099.12 279.468 1103.89 284.113 1103.89 289.842V422.848H1063.57V289.753C1063.62 284.058 1068.37 279.468 1074.22 279.468Z" fill="#D2D6FA"/>
<ellipse cx="1083.71" cy="351.122" rx="12.9931" ry="12.6596" fill="#B5BBF4"/>
<path d="M1083.71 360.247C1083.22 360.334 1082.73 360.376 1082.23 360.372C1077.37 359.9 1073.67 355.916 1073.68 351.159C1073.68 346.402 1077.39 342.425 1082.25 341.962C1082.74 341.958 1083.24 342 1083.73 342.087C1079.11 342.78 1075.7 346.655 1075.7 351.212C1075.7 355.769 1079.11 359.644 1083.73 360.336L1083.71 360.247Z" fill="#D2D6FA"/>
<path d="M1111.79 315.875H1125.95C1130.34 315.875 1133.89 319.337 1133.89 323.607V422.848H1103.85V323.607C1103.85 319.337 1107.4 315.875 1111.79 315.875Z" fill="#BCBFF6"/>
<ellipse cx="1118.86" cy="369.353" rx="9.69446" ry="9.44559" fill="#D2D6FA"/>
<path d="M1118.9 376.174C1118.53 376.201 1118.16 376.201 1117.8 376.174C1113.89 376.174 1110.72 373.088 1110.72 369.282C1110.72 365.475 1113.89 362.389 1117.8 362.389C1118.16 362.362 1118.53 362.362 1118.9 362.389C1115.45 362.907 1112.9 365.8 1112.9 369.201C1112.9 372.603 1115.45 375.495 1118.9 376.013V376.174Z" fill="#F0F1FC"/>
<path d="M349.976 692.718H1426.48C1446.49 692.713 1465.67 700.452 1479.82 714.232C1493.96 728.012 1501.91 746.703 1501.91 766.194V1113.15H274.546V766.194C274.546 746.703 282.494 728.012 296.64 714.232C310.786 700.452 329.972 692.713 349.976 692.718V692.718Z" fill="#A17C74"/>
<path d="M274.546 1093.49H1501.89V1113.15H274.546V1093.49Z" fill="#7B5649"/>
<rect x="171.591" y="1113.15" width="1433.26" height="216.91" rx="16.88" fill="#A17C74"/>
<path d="M171.591 1262.42H1604.85V1285.74H171.591L171.591 1262.42Z" fill="#936E62"/>
<path d="M341.417 1447.37H305.479L357.397 1330.07H414.134L341.417 1447.37Z" fill="#7B5649"/>
<path d="M1435.02 1447.37H1470.96L1419.06 1330.07H1362.32L1435.02 1447.37Z" fill="#7B5649"/>
<ellipse cx="1377.22" cy="813.101" rx="12.37" ry="12.0525" fill="#7B5649"/>
<path d="M1417.06 769.599C1417.79 768.886 1418.98 768.886 1419.71 769.599L1421.85 771.688C1422.59 772.401 1422.59 773.557 1421.85 774.27L1397.17 798.316C1396.44 799.029 1395.26 799.029 1394.52 798.316L1392.38 796.227C1391.65 795.514 1391.65 794.358 1392.38 793.645L1417.06 769.599Z" fill="#7B5649"/>
<path d="M1353.33 831.701C1354.07 830.988 1355.25 830.988 1355.98 831.701L1358.13 833.79C1358.86 834.503 1358.86 835.659 1358.13 836.372L1333.45 860.418C1332.72 861.131 1331.53 861.131 1330.8 860.418L1328.65 858.329C1327.92 857.616 1327.92 856.459 1328.65 855.746L1353.33 831.701Z" fill="#7B5649"/>
<path d="M1421.86 855.744C1422.59 856.457 1422.59 857.613 1421.86 858.326L1419.71 860.415C1418.98 861.128 1417.8 861.128 1417.06 860.415L1392.38 836.369C1391.65 835.656 1391.65 834.5 1392.38 833.787L1394.53 831.698C1395.26 830.985 1396.45 830.985 1397.18 831.698L1421.86 855.744Z" fill="#7B5649"/>
<path d="M1358.12 793.66C1358.86 794.373 1358.86 795.529 1358.12 796.242L1355.98 798.331C1355.25 799.044 1354.06 799.044 1353.33 798.331L1328.65 774.285C1327.92 773.572 1327.92 772.416 1328.65 771.703L1330.79 769.614C1331.53 768.901 1332.71 768.901 1333.44 769.614L1358.12 793.66Z" fill="#7B5649"/>
<ellipse cx="1377.22" cy="1005.08" rx="12.37" ry="12.0525" fill="#7B5649"/>
<path d="M1417.05 961.609C1417.78 960.896 1418.97 960.896 1419.7 961.609L1421.84 963.699C1422.58 964.412 1422.58 965.568 1421.84 966.281L1397.16 990.327C1396.43 991.04 1395.25 991.04 1394.51 990.327L1392.37 988.237C1391.64 987.524 1391.64 986.368 1392.37 985.655L1417.05 961.609Z" fill="#7B5649"/>
<path d="M1353.33 1023.69C1354.06 1022.98 1355.24 1022.98 1355.98 1023.69L1358.12 1025.78C1358.85 1026.5 1358.85 1027.65 1358.12 1028.36L1333.44 1052.41C1332.71 1053.12 1331.52 1053.12 1330.79 1052.41L1328.65 1050.32C1327.92 1049.61 1327.92 1048.45 1328.65 1047.74L1353.33 1023.69Z" fill="#7B5649"/>
<path d="M1421.85 1047.74C1422.58 1048.45 1422.58 1049.6 1421.85 1050.32L1419.7 1052.41C1418.97 1053.12 1417.78 1053.12 1417.05 1052.41L1392.37 1028.36C1391.64 1027.65 1391.64 1026.49 1392.37 1025.78L1394.52 1023.69C1395.25 1022.98 1396.44 1022.98 1397.17 1023.69L1421.85 1047.74Z" fill="#7B5649"/>
<path d="M1358.11 985.634C1358.85 986.347 1358.85 987.503 1358.11 988.216L1355.97 990.305C1355.24 991.018 1354.05 991.018 1353.32 990.305L1328.64 966.26C1327.91 965.546 1327.91 964.39 1328.64 963.677L1330.78 961.588C1331.52 960.875 1332.7 960.875 1333.44 961.588L1358.11 985.634Z" fill="#7B5649"/>
<ellipse cx="1133.71" cy="813.101" rx="12.3701" ry="12.0525" fill="#7B5649"/>
<path d="M1173.54 769.598C1174.27 768.885 1175.46 768.885 1176.19 769.598L1178.34 771.688C1179.07 772.401 1179.07 773.557 1178.34 774.27L1153.66 798.316C1152.93 799.029 1151.74 799.029 1151.01 798.316L1148.86 796.226C1148.13 795.513 1148.13 794.357 1148.86 793.644L1173.54 769.598Z" fill="#7B5649"/>
<path d="M1109.82 831.7C1110.55 830.987 1111.74 830.987 1112.47 831.7L1114.61 833.789C1115.34 834.502 1115.34 835.658 1114.61 836.372L1089.93 860.417C1089.2 861.13 1088.01 861.13 1087.28 860.417L1085.14 858.328C1084.41 857.615 1084.41 856.459 1085.14 855.746L1109.82 831.7Z" fill="#7B5649"/>
<path d="M1178.34 855.743C1179.07 856.456 1179.07 857.612 1178.34 858.325L1176.2 860.414C1175.47 861.127 1174.28 861.127 1173.55 860.414L1148.87 836.369C1148.14 835.656 1148.14 834.5 1148.87 833.787L1151.01 831.697C1151.74 830.984 1152.93 830.984 1153.66 831.697L1178.34 855.743Z" fill="#7B5649"/>
<path d="M1114.61 793.659C1115.34 794.372 1115.34 795.528 1114.61 796.241L1112.46 798.331C1111.73 799.044 1110.55 799.044 1109.81 798.331L1085.13 774.285C1084.4 773.572 1084.4 772.416 1085.13 771.703L1087.28 769.613C1088.01 768.9 1089.2 768.9 1089.93 769.613L1114.61 793.659Z" fill="#7B5649"/>
<ellipse cx="1133.71" cy="1005.08" rx="12.3701" ry="12.0525" fill="#7B5649"/>
<path d="M1173.53 961.609C1174.26 960.896 1175.45 960.896 1176.18 961.609L1178.33 963.698C1179.06 964.411 1179.06 965.567 1178.33 966.28L1153.65 990.326C1152.92 991.039 1151.73 991.039 1151 990.326L1148.85 988.237C1148.12 987.524 1148.12 986.368 1148.85 985.655L1173.53 961.609Z" fill="#7B5649"/>
<path d="M1109.81 1023.69C1110.54 1022.98 1111.73 1022.98 1112.46 1023.69L1114.6 1025.78C1115.34 1026.5 1115.34 1027.65 1114.6 1028.36L1089.93 1052.41C1089.19 1053.12 1088.01 1053.12 1087.27 1052.41L1085.13 1050.32C1084.4 1049.61 1084.4 1048.45 1085.13 1047.74L1109.81 1023.69Z" fill="#7B5649"/>
<path d="M1178.33 1047.73C1179.06 1048.45 1179.06 1049.6 1178.33 1050.32L1176.19 1052.41C1175.46 1053.12 1174.27 1053.12 1173.54 1052.41L1148.86 1028.36C1148.13 1027.65 1148.13 1026.49 1148.86 1025.78L1151 1023.69C1151.73 1022.98 1152.92 1022.98 1153.65 1023.69L1178.33 1047.73Z" fill="#7B5649"/>
<path d="M1114.62 985.633C1115.35 986.346 1115.35 987.502 1114.62 988.215L1112.47 990.305C1111.74 991.018 1110.55 991.018 1109.82 990.305L1085.14 966.259C1084.41 965.546 1084.41 964.39 1085.14 963.677L1087.29 961.587C1088.02 960.874 1089.21 960.874 1089.94 961.587L1114.62 985.633Z" fill="#7B5649"/>
<ellipse cx="890.189" cy="813.101" rx="12.3701" ry="12.0525" fill="#7B5649"/>
<path d="M930.027 769.598C930.758 768.885 931.945 768.885 932.677 769.598L934.821 771.687C935.553 772.4 935.553 773.556 934.821 774.269L910.142 798.315C909.41 799.028 908.224 799.028 907.492 798.315L905.347 796.226C904.615 795.512 904.615 794.356 905.347 793.643L930.027 769.598Z" fill="#7B5649"/>
<path d="M866.302 831.699C867.034 830.986 868.22 830.986 868.952 831.699L871.097 833.789C871.828 834.502 871.828 835.658 871.097 836.371L846.417 860.417C845.685 861.13 844.499 861.13 843.767 860.417L841.623 858.327C840.891 857.614 840.891 856.458 841.623 855.745L866.302 831.699Z" fill="#7B5649"/>
<path d="M934.826 855.743C935.558 856.456 935.558 857.612 934.826 858.325L932.682 860.414C931.95 861.127 930.764 861.127 930.032 860.414L905.352 836.368C904.621 835.655 904.621 834.499 905.352 833.786L907.497 831.697C908.229 830.984 909.415 830.984 910.147 831.697L934.826 855.743Z" fill="#7B5649"/>
<path d="M871.111 793.658C871.843 794.371 871.843 795.527 871.111 796.24L868.967 798.33C868.235 799.043 867.049 799.043 866.317 798.33L841.638 774.284C840.906 773.571 840.906 772.415 841.638 771.702L843.782 769.613C844.514 768.9 845.7 768.9 846.432 769.613L871.111 793.658Z" fill="#7B5649"/>
<ellipse cx="890.189" cy="1005.08" rx="12.3701" ry="12.0525" fill="#7B5649"/>
<path d="M930.016 961.608C930.748 960.895 931.934 960.895 932.666 961.608L934.81 963.698C935.542 964.411 935.542 965.567 934.81 966.28L910.131 990.326C909.399 991.039 908.213 991.039 907.481 990.326L905.337 988.236C904.605 987.523 904.605 986.367 905.337 985.654L930.016 961.608Z" fill="#7B5649"/>
<path d="M866.293 1023.69C867.025 1022.98 868.211 1022.98 868.943 1023.69L871.088 1025.78C871.82 1026.49 871.82 1027.65 871.088 1028.36L846.409 1052.41C845.677 1053.12 844.49 1053.12 843.758 1052.41L841.614 1050.32C840.882 1049.61 840.882 1048.45 841.614 1047.74L866.293 1023.69Z" fill="#7B5649"/>
<path d="M934.818 1047.73C935.549 1048.45 935.549 1049.6 934.818 1050.32L932.673 1052.41C931.941 1053.12 930.755 1053.12 930.023 1052.41L905.344 1028.36C904.612 1027.65 904.612 1026.49 905.344 1025.78L907.488 1023.69C908.22 1022.98 909.407 1022.98 910.138 1023.69L934.818 1047.73Z" fill="#7B5649"/>
<path d="M871.103 985.633C871.834 986.346 871.834 987.502 871.103 988.215L868.958 990.304C868.226 991.017 867.04 991.017 866.308 990.304L841.629 966.258C840.897 965.545 840.897 964.389 841.629 963.676L843.773 961.587C844.505 960.874 845.692 960.874 846.423 961.587L871.103 985.633Z" fill="#7B5649"/>
<ellipse cx="646.674" cy="813.101" rx="12.3701" ry="12.0525" fill="#7B5649"/>
<path d="M686.51 769.597C687.242 768.884 688.428 768.884 689.16 769.597L691.305 771.687C692.036 772.4 692.036 773.556 691.305 774.269L666.625 798.315C665.893 799.028 664.707 799.028 663.975 798.314L661.831 796.225C661.099 795.512 661.099 794.356 661.831 793.643L686.51 769.597Z" fill="#7B5649"/>
<path d="M622.785 831.699C623.517 830.986 624.704 830.986 625.435 831.699L627.58 833.788C628.312 834.501 628.312 835.657 627.58 836.37L602.901 860.416C602.169 861.129 600.982 861.129 600.251 860.416L598.106 858.327C597.374 857.614 597.374 856.458 598.106 855.745L622.785 831.699Z" fill="#7B5649"/>
<path d="M691.313 855.742C692.044 856.455 692.044 857.611 691.313 858.324L689.168 860.413C688.436 861.126 687.25 861.126 686.518 860.413L661.839 836.367C661.107 835.654 661.107 834.498 661.839 833.785L663.983 831.696C664.715 830.983 665.902 830.983 666.633 831.696L691.313 855.742Z" fill="#7B5649"/>
<path d="M627.596 793.64C628.328 794.353 628.328 795.509 627.596 796.222L625.451 798.312C624.72 799.025 623.533 799.025 622.801 798.312L598.122 774.266C597.39 773.553 597.39 772.397 598.122 771.684L600.267 769.594C600.998 768.881 602.185 768.881 602.917 769.594L627.596 793.64Z" fill="#7B5649"/>
<ellipse cx="646.674" cy="1005.08" rx="12.3701" ry="12.0525" fill="#7B5649"/>
<path d="M686.499 961.607C687.231 960.894 688.417 960.894 689.149 961.607L691.294 963.697C692.026 964.41 692.026 965.566 691.294 966.279L666.615 990.325C665.883 991.038 664.696 991.038 663.964 990.325L661.82 988.235C661.088 987.522 661.088 986.366 661.82 985.653L686.499 961.607Z" fill="#7B5649"/>
<path d="M622.777 1023.69C623.508 1022.98 624.695 1022.98 625.427 1023.69L627.571 1025.78C628.303 1026.49 628.303 1027.65 627.571 1028.36L602.892 1052.41C602.16 1053.12 600.974 1053.12 600.242 1052.41L598.097 1050.32C597.365 1049.61 597.365 1048.45 598.097 1047.74L622.777 1023.69Z" fill="#7B5649"/>
<path d="M691.32 1047.73C692.052 1048.45 692.052 1049.6 691.32 1050.32L689.176 1052.41C688.444 1053.12 687.258 1053.12 686.526 1052.41L661.847 1028.36C661.115 1027.65 661.115 1026.49 661.847 1025.78L663.991 1023.69C664.723 1022.97 665.909 1022.97 666.641 1023.69L691.32 1047.73Z" fill="#7B5649"/>
<path d="M627.587 985.632C628.319 986.345 628.319 987.501 627.587 988.214L625.443 990.304C624.711 991.017 623.524 991.017 622.792 990.304L598.113 966.258C597.381 965.545 597.381 964.389 598.113 963.676L600.258 961.586C600.989 960.873 602.176 960.873 602.908 961.586L627.587 985.632Z" fill="#7B5649"/>
<ellipse cx="403.157" cy="813.101" rx="12.37" ry="12.0525" fill="#7B5649"/>
<path d="M442.993 769.596C443.725 768.883 444.912 768.883 445.643 769.596L447.788 771.686C448.52 772.399 448.52 773.555 447.788 774.268L423.109 798.314C422.377 799.027 421.19 799.027 420.459 798.314L418.314 796.224C417.582 795.511 417.582 794.355 418.314 793.642L442.993 769.596Z" fill="#7B5649"/>
<path d="M379.269 831.698C380.001 830.985 381.187 830.985 381.919 831.698L384.063 833.788C384.795 834.501 384.795 835.657 384.063 836.37L359.384 860.416C358.652 861.129 357.466 861.129 356.734 860.416L354.589 858.326C353.858 857.613 353.858 856.457 354.589 855.744L379.269 831.698Z" fill="#7B5649"/>
<path d="M447.797 855.741C448.529 856.454 448.529 857.61 447.797 858.323L445.652 860.413C444.921 861.126 443.734 861.126 443.002 860.413L418.323 836.367C417.591 835.654 417.591 834.498 418.323 833.785L420.468 831.695C421.2 830.982 422.386 830.982 423.118 831.695L447.797 855.741Z" fill="#7B5649"/>
<path d="M384.081 793.657C384.813 794.37 384.813 795.526 384.081 796.239L381.937 798.329C381.205 799.042 380.018 799.042 379.287 798.329L354.607 774.283C353.876 773.57 353.876 772.414 354.607 771.701L356.752 769.611C357.484 768.898 358.67 768.898 359.402 769.611L384.081 793.657Z" fill="#7B5649"/>
<ellipse cx="403.157" cy="1005.08" rx="12.37" ry="12.0525" fill="#7B5649"/>
<path d="M442.984 961.607C443.715 960.894 444.902 960.894 445.634 961.607L447.778 963.696C448.51 964.409 448.51 965.565 447.778 966.279L423.099 990.324C422.367 991.037 421.181 991.037 420.449 990.324L418.304 988.235C417.572 987.522 417.572 986.366 418.304 985.653L442.984 961.607Z" fill="#7B5649"/>
<path d="M379.278 1023.69C380.01 1022.98 381.197 1022.98 381.929 1023.69L384.073 1025.78C384.805 1026.49 384.805 1027.65 384.073 1028.36L359.394 1052.41C358.662 1053.12 357.476 1053.12 356.744 1052.41L354.599 1050.32C353.867 1049.61 353.867 1048.45 354.599 1047.74L379.278 1023.69Z" fill="#7B5649"/>
<path d="M447.805 1047.73C448.537 1048.45 448.537 1049.6 447.805 1050.31L445.66 1052.4C444.928 1053.12 443.742 1053.12 443.01 1052.4L418.331 1028.36C417.599 1027.65 417.599 1026.49 418.331 1025.78L420.475 1023.69C421.207 1022.97 422.394 1022.97 423.126 1023.69L447.805 1047.73Z" fill="#7B5649"/>
<path d="M384.071 985.631C384.803 986.344 384.803 987.5 384.071 988.213L381.927 990.303C381.195 991.016 380.009 991.016 379.277 990.303L354.598 966.257C353.866 965.544 353.866 964.388 354.598 963.675L356.742 961.586C357.474 960.872 358.66 960.872 359.392 961.586L384.071 985.631Z" fill="#7B5649"/>
<ellipse cx="1386.83" cy="581.46" rx="154.415" ry="150.451" fill="#673315"/>
<path d="M913.144 655.468C917.547 652.486 923.621 653.578 926.71 657.908L935.643 670.428C938.732 674.758 937.666 680.686 933.262 683.668L870.06 726.474C865.657 729.456 859.583 728.364 856.494 724.034L847.561 711.513C844.472 707.184 845.538 701.256 849.942 698.274L913.144 655.468Z" fill="#EF927F"/>
<path d="M864.195 658.346C869.514 658.346 873.825 662.657 873.825 667.976V683.106C873.825 688.424 869.514 692.736 864.195 692.736H786.932C781.614 692.736 777.302 688.424 777.302 683.106V667.976C777.302 662.657 781.614 658.346 786.932 658.346H864.195Z" fill="#EF927F"/>
<path d="M877.159 615.367C862.35 628.698 857.415 649.498 864.718 667.809C872.021 686.12 890.075 698.217 910.238 698.307L1275.47 699.521L1363 699.914C1389.75 699.546 1411.28 678.375 1411.4 652.306C1411.53 626.238 1390.21 604.871 1363.46 604.261L910.678 602.654C898.252 602.585 886.266 607.131 877.159 615.367V615.367Z" fill="#F5A491"/>
<path d="M861.399 650.257C861.331 662.941 866.439 675.13 875.599 684.142C884.76 693.155 897.22 698.25 910.238 698.307H912.345L947.403 698.449L950.005 674.934L957.94 602.851L910.678 602.654C883.584 602.555 861.53 623.859 861.399 650.257V650.257Z" fill="#F5A491"/>
<ellipse rx="54.0801" ry="65.8482" transform="matrix(0.098703 -0.995117 0.995596 0.0937461 881.851 649.41)" fill="#F5A491"/>
<path d="M950.006 674.952L947.403 698.467L1363 699.896H1365.9H1366.3C1367.12 699.896 1367.95 699.771 1368.75 699.699L1369.3 699.61C1370.04 699.61 1370.81 699.432 1371.56 699.307L1372.09 699.217L1374.42 698.753H1374.78C1377.48 698.116 1380.11 697.268 1382.66 696.218L1382.98 696.057C1383.69 695.771 1384.39 695.45 1385.08 695.093L1385.54 694.878C1386.22 694.557 1386.88 694.2 1387.52 693.825C1387.65 693.77 1387.78 693.705 1387.91 693.628C1388.66 693.2 1389.35 692.771 1390.07 692.325C1403.87 683.541 1412.21 668.586 1412.28 652.525C1412.28 652.328 1412.28 652.132 1412.28 651.918C1411.97 637.633 1391.92 634.312 1386.11 647.454C1378.37 665.133 1360.5 676.568 1340.77 676.469L950.006 674.952Z" fill="#EF927F"/>
<path d="M816.355 643.311C815.52 652.037 817.195 660.816 821.193 668.666C821.239 668.781 821.3 668.889 821.376 668.988C822.454 671.085 823.678 673.107 825.041 675.041L825.536 675.737C826.122 676.505 826.709 677.308 827.368 678.076C827.491 678.273 827.632 678.458 827.79 678.63C828.523 679.558 829.311 680.415 830.136 681.344C830.292 681.489 830.439 681.644 830.576 681.808C831.29 682.558 832.005 683.272 832.756 683.986L833.416 684.611C835.229 686.298 837.138 687.884 839.134 689.361L839.885 689.897C840.728 690.504 841.608 691.111 842.506 691.682C842.689 691.807 842.909 691.932 843.092 692.075C844.167 692.753 845.285 693.414 846.446 694.057L846.996 694.343C847.967 694.896 848.975 695.396 849.983 695.896L850.789 696.289C853.208 697.414 855.701 698.432 858.284 699.342L859.072 699.592C860.227 699.985 861.4 700.324 862.573 700.663C862.741 700.722 862.912 700.769 863.086 700.806C864.442 701.199 865.853 701.556 867.283 701.842H867.667C868.969 702.128 870.288 702.36 871.607 702.574L872.267 702.663C873.733 702.895 875.199 703.092 876.702 703.217C885.844 704.112 895.077 703.386 903.953 701.074C904.038 701.058 904.125 701.058 904.209 701.074H904.448C907.169 700.335 909.843 699.44 912.456 698.396L947.514 698.539L950.116 675.023H941.118L890.19 674.809C885.239 678.709 879.108 680.911 872.744 681.076C850.386 682.147 822.989 663.452 827.9 632.866C829.118 623.772 832.771 615.15 838.492 607.868C826.086 616.331 817.784 628.795 816.355 643.311V643.311Z" fill="#EF927F"/>
<path d="M723.367 993.031L634.303 1066.4L711.51 1074.51L794.82 1017.14L723.367 993.031Z" fill="#F5A491"/>
<path d="M557.006 1092.74C555.595 1082.22 563.053 1072.01 574.947 1068.17L690.675 1033.55C703.962 1029.26 706.601 1037.97 708.177 1049.74L711.512 1074.51C714.518 1096.79 691.867 1116.32 665.441 1114.25L581.141 1112C568.533 1111.41 558.435 1103.36 557.006 1092.74V1092.74Z" fill="#F5A491"/>
<path d="M1001.53 739.808L1398.3 963.002L1344.31 1054.13C1331.55 1075.65 1303.31 1083.02 1281.22 1070.6L924.445 869.901C887.655 849.126 875.075 803.251 896.327 767.365C917.592 731.479 964.666 719.148 1001.53 739.808L1001.53 739.808Z" fill="#FCB922"/>
<path d="M905.785 752.82L688.347 1012.74C686.218 1015.28 686.303 1018.95 688.549 1021.39L728.151 1064.58C730.612 1067.26 734.808 1067.56 737.644 1065.26L1004.56 847.901C1020.51 834.917 1029.69 815.677 1029.58 795.426C1029.48 775.175 1020.11 756.025 1004.03 743.195C989.7 731.76 971.29 726.348 952.859 728.154C934.429 729.959 917.492 738.833 905.785 752.82V752.82Z" fill="#FCB922"/>
<path d="M1462.97 718.608C1462.26 724.573 1461.12 730.48 1459.54 736.285L1391.55 988.21C1383.94 1016.45 1365.12 1040.58 1339.24 1055.29C1313.36 1070 1282.54 1074.1 1253.56 1066.67L1162.51 1043.33L1271.66 638.99C1277 619.203 1290.18 602.293 1308.32 591.981C1326.45 581.67 1348.05 578.803 1368.35 584.013C1429.87 599.687 1470.2 657.054 1462.97 718.608V718.608Z" fill="#FF4539"/>
<path d="M1201.51 671.86C1204.86 657.752 1219.04 648.899 1233.19 652.086L1422.63 694.766C1436.78 697.953 1445.53 711.974 1442.18 726.082L1432.63 766.341C1429.28 780.449 1415.1 789.303 1400.95 786.116L1211.51 743.435C1197.36 740.248 1188.61 726.227 1191.96 712.119L1201.51 671.86Z" fill="#FF4539"/>
<path d="M976.762 962.909H1398.26V1041.26C1398.26 1080.96 1365.23 1113.15 1324.48 1113.15H976.762C935.817 1113.1 902.651 1080.74 902.651 1040.85V1035.21C902.651 995.312 935.817 962.958 976.762 962.909V962.909Z" fill="#FFC839"/>
<ellipse cx="1286.64" cy="517.84" rx="81.1658" ry="79.0824" fill="#673315"/>
<path d="M1221.08 543.588C1229.8 570.304 1252.4 590.519 1280.46 596.708C1250.15 594.433 1223.69 575.848 1211.89 548.553C1200.1 521.258 1204.94 489.828 1224.44 467.113C1243.95 444.398 1274.85 434.206 1304.5 440.704C1277.61 438.759 1251.48 449.947 1234.76 470.566C1218.04 491.185 1212.92 518.545 1221.08 543.588V543.588Z" fill="#AD8E88"/>
<path d="M1383.36 491.943C1376.81 471.903 1387.82 450.591 1407.96 444.342L1482.9 421.08C1503.04 414.83 1524.67 426.008 1531.22 446.048L1549.97 503.374C1556.52 523.414 1545.51 544.725 1525.37 550.975L1450.43 574.237C1430.29 580.487 1408.66 569.308 1402.1 549.269L1383.36 491.943Z" fill="#673315"/>
<path d="M1288.67 545.124L1305.46 596.476C1308.59 606.734 1317.17 614.541 1327.89 616.891C1338.61 619.242 1349.79 615.769 1357.14 607.811C1364.48 599.852 1366.84 588.648 1363.31 578.513L1346.53 527.161C1343.39 516.903 1334.81 509.096 1324.09 506.746C1313.37 504.395 1302.19 507.868 1294.84 515.826C1287.5 523.785 1285.14 534.988 1288.67 545.124V545.124Z" fill="#F5A491"/>
<path d="M1288.67 545.124L1301.59 584.638C1321.96 582.601 1341.65 576.349 1359.34 566.3L1346.51 527.161C1343.37 516.903 1334.79 509.096 1324.07 506.746C1313.36 504.395 1302.17 507.868 1294.83 515.826C1287.48 523.785 1285.12 534.988 1288.65 545.124H1288.67Z" fill="#EF927F"/>
<path d="M1209.58 443.472L1214.73 458.345L1218.24 468.541L1239.06 528.875C1250.2 561.134 1286.07 578.494 1319.18 567.657C1345.62 558.997 1367.45 540.457 1379.86 516.116C1392.27 491.774 1394.25 463.627 1385.36 437.865L1370.7 395.387C1360.61 366.194 1328.15 350.489 1298.18 360.3L1253.58 374.924L1242.75 378.495C1215.18 387.522 1200.33 416.605 1209.58 443.472V443.472Z" fill="#F5A491"/>
<path d="M1324.59 565.711C1322.76 566.407 1320.92 567.068 1319.09 567.657C1285.98 578.494 1250.11 561.134 1238.97 528.875L1218.15 468.541L1214.63 458.345L1209.48 443.489C1200.23 416.608 1215.07 387.502 1242.65 378.459L1248.35 376.674C1222.52 386.856 1209.29 414.878 1218.17 440.615L1223.3 455.488L1226.82 465.684L1247.73 525.875C1258.42 556.943 1292.18 574.44 1324.59 565.711V565.711Z" fill="#FFC4AF"/>
<path d="M1209.58 443.471L1214.73 458.345L1218.24 468.541C1243.05 472.847 1267.46 459.197 1276.16 436.153C1284.86 413.108 1275.34 387.304 1253.58 374.924L1242.75 378.495C1215.18 387.522 1200.33 416.605 1209.58 443.471V443.471Z" fill="#EF927F"/>
<ellipse rx="5.99692" ry="5.28034" transform="matrix(0.955054 -0.296433 0.31077 0.950485 1255.24 493.709)" fill="#230D30"/>
<ellipse rx="5.99687" ry="5.28033" transform="matrix(0.955053 -0.296436 0.310768 0.950486 1298.62 480.248)" fill="#230D30"/>
<ellipse cx="1403.14" cy="431.883" rx="55.143" ry="53.7275" fill="#673315"/>
<path d="M1540.03 473.058C1540.23 473.594 1540.41 474.148 1540.6 474.719C1547.93 497.063 1542.93 521.511 1527.37 539.41C1538.51 522.358 1541.3 501.367 1534.99 482.111C1534.81 481.558 1534.62 481.004 1534.42 480.451C1523.41 449.534 1491.4 430.607 1458.17 435.365C1456.33 435.633 1454.5 435.99 1452.67 436.401C1452.57 434.485 1452.36 432.577 1452.03 430.687C1451.62 428.08 1451.01 425.507 1450.2 422.991C1445.76 409.411 1435.96 398.104 1422.97 391.561C1409.97 385.017 1394.84 383.773 1380.91 388.101C1371.36 391.034 1362.82 396.47 1356.24 403.814C1368.86 383.774 1393.38 374.053 1416.78 379.818C1440.17 385.583 1457.01 405.496 1458.33 428.973C1493.12 421.219 1528.32 440.215 1540.03 473.058V473.058Z" fill="#441A07"/>
<ellipse cx="1386.82" cy="456.238" rx="26.756" ry="26.0692" fill="#F5A491"/>
<path d="M1394.54 454.131C1395.96 458.447 1394.58 463.173 1391.04 466.113C1390.18 466.772 1389.05 466.979 1388 466.665C1386.96 466.351 1386.14 465.557 1385.82 464.541L1381.25 450.578C1380.92 449.51 1381.17 448.349 1381.91 447.498C1382.65 446.646 1383.78 446.219 1384.92 446.364C1389.41 446.901 1393.16 449.934 1394.54 454.131V454.131Z" fill="#EF927F"/>
<ellipse cx="1345.39" cy="375.781" rx="58.1117" ry="56.6201" fill="#673315"/>
<path d="M1403.08 382.584C1400.02 353.973 1375.44 332.142 1345.92 331.827C1316.4 331.512 1291.32 352.813 1287.63 381.352C1285.31 359.686 1295.96 338.649 1315.01 327.247C1334.06 315.846 1358.13 316.103 1376.92 327.908C1395.71 339.713 1405.88 360.973 1403.08 382.584V382.584Z" fill="#441A07"/>
<ellipse cx="1251.74" cy="374.71" rx="58.1117" ry="56.6201" fill="#673315"/>
<ellipse cx="1206.46" cy="433.936" rx="58.1118" ry="56.6201" fill="#673315"/>
<path d="M1290.78 332.767C1274.23 326.514 1255.66 327.969 1240.35 336.718C1225.04 345.466 1214.67 360.55 1212.2 377.674C1211.61 381.629 1211.47 385.634 1211.77 389.619C1210.13 389.976 1208.46 390.405 1206.81 390.923C1203.56 391.932 1200.41 393.21 1197.39 394.744C1180.61 403.357 1169.2 419.397 1166.81 437.724C1164.42 456.051 1171.35 474.363 1185.39 486.789C1162.44 478.085 1147.62 456.236 1148.39 432.257C1149.16 408.277 1165.35 387.374 1188.81 380.084C1190.46 379.566 1192.13 379.138 1193.8 378.781C1192.12 355.717 1205.01 333.977 1226.35 323.87C1247.69 313.763 1273.2 317.32 1290.78 332.856V332.767Z" fill="#AD8E88"/>
<ellipse cx="1262.59" cy="379.209" rx="31.0626" ry="30.2652" fill="#AD8E88"/>
<path d="M1270.64 514.912C1272.43 519.273 1275.93 522.761 1280.37 524.607C1280.92 524.839 1281.47 525.036 1282.02 525.214C1286.05 526.451 1290.39 526.293 1294.31 524.768L1294.99 524.482C1298.59 523.08 1301.63 520.573 1303.64 517.34C1306.45 512.978 1307.17 507.636 1305.6 502.716C1305.46 502.244 1305.28 501.779 1305.09 501.324C1304.36 499.569 1302.31 498.716 1300.51 499.413L1272.6 510.359C1271.7 510.691 1270.99 511.366 1270.62 512.226C1270.25 513.086 1270.25 514.057 1270.64 514.912V514.912Z" fill="#962F4A"/>
<path d="M1293.62 522.09C1293.96 522.943 1294.4 523.757 1294.92 524.518H1295.01C1303.79 521.075 1308.39 511.651 1305.6 502.841C1304.24 502.966 1302.91 503.285 1301.64 503.788C1298.09 505.177 1295.25 507.886 1293.74 511.318C1292.23 514.751 1292.19 518.626 1293.62 522.09V522.09Z" fill="#E1617F"/>
<path d="M1273.22 510.198C1274.69 513.376 1280.85 513.966 1287.13 511.501C1293.42 509.037 1297.47 504.448 1296.29 501.181L1273.22 510.198Z" fill="white"/>
<path d="M1358.57 626.62C1368.23 612.843 1387.42 609.236 1401.43 618.563L1442.91 646.184C1456.92 655.511 1460.44 674.24 1450.77 688.017L1304.74 896.21C1295.08 909.986 1275.89 913.594 1261.88 904.267L1220.4 876.646C1206.39 867.319 1202.87 848.59 1212.54 834.813L1358.57 626.62Z" fill="#F5A491"/>
<path d="M1182.46 699.467C1184.46 703.875 1182.47 708.996 1178.02 710.905L1164.73 716.617C1160.28 718.526 1155.06 716.501 1153.07 712.093L1127.13 654.778C1125.14 650.37 1127.12 645.249 1131.57 643.339L1144.87 637.627C1149.31 635.718 1154.53 637.743 1156.53 642.151L1182.46 699.467Z" fill="#F5A491"/>
<path d="M1076.05 566.475C1076.15 562.793 1079.22 559.886 1082.9 559.982L1150.87 561.763C1154.55 561.859 1157.46 564.922 1157.35 568.605L1153.67 702.204C1153.57 705.886 1150.5 708.793 1146.82 708.697L1078.85 706.916C1075.17 706.82 1072.26 703.757 1072.37 700.074L1076.05 566.475Z" fill="#AD8E88"/>
<path d="M1070.01 570.476C1070.11 566.793 1073.18 563.886 1076.86 563.983L1144.83 565.763C1148.51 565.86 1151.41 568.923 1151.31 572.605L1147.62 706.205C1147.52 709.887 1144.45 712.794 1140.77 712.697L1072.8 710.917C1069.12 710.821 1066.22 707.757 1066.32 704.075L1070.01 570.476Z" fill="#441A07"/>
<path d="M1066.39 698.932C1066.22 705.506 1071.54 710.978 1078.29 711.163L1135.1 712.645C1135.92 712.669 1136.75 712.603 1137.55 712.448L1088.07 711.163C1084.83 711.079 1081.76 709.742 1079.53 707.448C1077.29 705.154 1076.09 702.091 1076.18 698.932L1079.7 575.871C1079.85 570.214 1084.07 565.447 1089.8 564.479L1082.36 564.283C1079.11 564.196 1075.97 565.369 1073.61 567.542C1071.26 569.716 1069.89 572.712 1069.8 575.871L1066.39 698.932Z" fill="#673315"/>
<ellipse cx="1118.64" cy="591.495" rx="8.90637" ry="8.67783" fill="#AD8E88"/>
<ellipse cx="1097.18" cy="590.923" rx="4.63641" ry="4.51746" fill="#AD8E88"/>
<path d="M1327.19 824.319C1339.6 835.754 1340.14 854.843 1328.39 866.956L1293.99 902.409C1282.24 914.523 1262.65 915.073 1250.23 903.639L1070.52 738.117C1058.11 726.683 1057.57 707.594 1069.33 695.48L1103.72 660.027C1115.48 647.914 1135.07 647.363 1147.48 658.798L1327.19 824.319Z" fill="#F5A491"/>
<ellipse rx="56.8322" ry="71.0285" transform="matrix(0.539027 -0.842288 0.854643 0.519216 1112.58 699.662)" fill="#F5A491"/>
<path d="M1102.26 704.022C1106.32 706.651 1107.41 712.022 1104.68 716.02L1096.78 727.617C1094.05 731.615 1088.55 732.725 1084.49 730.097L1030.73 695.309C1026.67 692.681 1025.58 687.31 1028.31 683.312L1036.21 671.715C1038.94 667.717 1044.44 666.607 1048.5 669.235L1102.26 704.022Z" fill="#F5A491"/>
<path d="M1032.27 677.541C1033.92 675.118 1036.23 673.193 1038.94 671.988C1038.67 672.327 1038.39 672.684 1038.15 673.041C1035.79 676.495 1034.94 680.722 1035.78 684.791C1036.61 688.86 1039.08 692.437 1042.63 694.736L1043.36 695.218L1050.69 699.985C1051.57 703.658 1052.8 707.244 1054.35 710.698C1059.44 721.804 1067.13 731.591 1076.8 739.267C1079.79 741.68 1082.93 743.894 1086.22 745.892C1088.84 747.481 1091.54 748.945 1094.25 750.249C1094.35 750.365 1094.46 750.472 1094.58 750.57L1105.76 760.855L1237.85 882.523C1257 900.101 1286.11 902.33 1307.84 887.88C1286.15 906.856 1253.15 906.444 1231.97 886.933L1088.72 754.98L1088.39 754.659C1085.69 753.356 1083 751.891 1080.36 750.302C1061.52 738.803 1049.08 721.733 1044.81 704.413L1036.71 699.182C1029.38 694.381 1027.4 684.716 1032.27 677.541V677.541Z" fill="#FFC4AF"/>
<path d="M1108.2 673.738C1112.26 676.366 1113.34 681.738 1110.62 685.735L1102.71 697.333C1099.99 701.331 1094.48 702.441 1090.42 699.812L1036.66 665.025C1032.6 662.397 1031.52 657.025 1034.24 653.028L1042.15 641.43C1044.87 637.433 1050.38 636.323 1054.44 638.951L1108.2 673.738Z" fill="#F5A491"/>
<path d="M1132.29 654.655C1136.35 657.283 1137.43 662.655 1134.71 666.652L1126.8 678.25C1124.08 682.248 1118.58 683.358 1114.52 680.729L1058.06 644.194C1053.99 641.565 1052.91 636.194 1055.63 632.196L1063.54 620.599C1066.27 616.601 1071.77 615.491 1075.83 618.119L1132.29 654.655Z" fill="#F5A491"/>
<path d="M1042.7 668.952C1035.83 664.36 1033.7 655.419 1037.79 648.351C1041.88 641.283 1050.84 638.429 1058.42 641.776C1059.11 642.09 1059.77 642.454 1060.4 642.865L1065.13 645.918C1063.57 645.212 1061.9 644.766 1060.18 644.597C1052.82 643.799 1045.85 648.013 1043.32 654.796C1040.79 661.578 1043.35 669.169 1049.52 673.166" fill="#FFC4AF"/>
<path d="M1081.86 622.028L1086.59 625.081C1080.45 622.331 1073.2 623.617 1068.45 628.298C1063.7 632.98 1062.46 640.057 1065.35 646.008H1065.19C1063.62 645.302 1061.95 644.855 1060.24 644.686C1059.52 643.817 1058.9 642.87 1058.4 641.865C1055.34 635.517 1056.97 627.955 1062.42 623.359C1067.86 618.763 1075.78 618.255 1081.79 622.117L1081.86 622.028Z" fill="#FFC4AF"/>
<path d="M1248.1 807.706C1252.56 811.807 1252.75 818.653 1248.53 822.997L1236.2 835.707C1231.99 840.052 1224.96 840.249 1220.51 836.148L1149.63 770.864C1145.18 766.763 1144.98 759.917 1149.2 755.573L1161.53 742.863C1165.75 738.518 1172.77 738.321 1177.22 742.422L1248.1 807.706Z" fill="#FFC4AF"/>
</svg>
